<svg xmlns="http://www.w3.org/2000/svg" viewBox="0 0 32 32">
  <path fill="#000" d="M24.6 7.4A11.6 11.6 0 0 0 16.3 4C9.9 4 4.7 9.2 4.7 15.6c0 2.1.5 4.1 1.6 5.8L4.5 28l6.8-1.8c1.6.9 3.3 1.3 5.1 1.3 6.4 0 11.6-5.2 11.6-11.6 0-3.2-1.2-6.2-3.4-8.5zM16.3 25.5c-1.6 0-3.2-.4-4.6-1.3l-.3-.2-4 1.1 1.1-3.9-.2-.4a9.7 9.7 0 0 1-1.5-5.1c0-5.3 4.3-9.6 9.6-9.6 2.6 0 5 1 6.8 2.8a9.6 9.6 0 0 1-6.9 16.6z"/>
  <path fill="#000" d="M21.6 18.3c-.3-.1-1.7-.8-1.9-.9-.3-.1-.5-.1-.7.2-.2.3-.7.9-.9 1.1-.2.2-.3.2-.6.1-.3-.1-1.1-.4-2.2-1.3-.8-.7-1.4-1.6-1.5-1.9-.2-.3 0-.4.1-.6.1-.1.3-.3.4-.4.1-.2.2-.3.3-.5.1-.2 0-.3 0-.5-.1-.1-.6-1.5-.9-2.1-.2-.6-.5-.5-.7-.5h-.6c-.2 0-.5.1-.8.4-.3.3-1 1-1 2.4 0 1.4 1 2.7 1.2 2.9.1.2 2 3.1 4.9 4.3.7.3 1.2.5 1.6.6.7.2 1.3.2 1.8.1.6-.1 1.7-.7 1.9-1.3.2-.7.2-1.2.2-1.4-.1-.2-.3-.3-.6-.4z"/>
</svg>
